<svg xmlns="http://www.w3.org/2000/svg" viewBox="0 0 195.74 195.74"><defs><style>.cls-1{fill:#00ac65;}</style></defs><g id="Layer_2" data-name="Layer 2"><g id="Layer_1-2" data-name="Layer 1"><path class="cls-1" d="M195.74,4.39A4.4,4.4,0,0,0,191.35,0H99.1C45.13,0,.4,43.16,0,97.13a97.87,97.87,0,1,0,195.74.74ZM180.85,99.45c-.82,44.37-37,80.58-81.41,81.41A83,83,0,0,1,14.87,96.29c.83-44.37,37-80.59,81.42-81.41A83,83,0,0,1,180.85,99.45Z"/><path class="cls-1" d="M121.77,108.88c.5-2.34-.71-4.6-3.23-5.87-5.15-2.6-10.31-5.19-15.5-7.73A2.16,2.16,0,0,1,101.63,93c0-8.07,0-16.13,0-24.2,0-.48,0-1,0-1.43-.28-3.63-3.31-5.92-6.65-5-2.38.64-3.86,2.73-3.87,5.6,0,4.86,0,9.73,0,14.59s0,9.57,0,14.36a6,6,0,0,0,3.69,5.93c5.61,2.73,11.18,5.57,16.77,8.36,1,.51,2,1.08,3.09,1.51A5.21,5.21,0,0,0,121.77,108.88Z"/><path class="cls-1" d="M96.56,48.73a4,4,0,1,0-4-4A4,4,0,0,0,96.56,48.73Z"/><path class="cls-1" d="M96.56,147.48a4,4,0,1,0,4,4A4,4,0,0,0,96.56,147.48Z"/><path class="cls-1" d="M43.16,94.08a4,4,0,1,0,4,4A4,4,0,0,0,43.16,94.08Z"/><path class="cls-1" d="M150,94.08a4,4,0,1,0,4,4A4,4,0,0,0,150,94.08Z"/><path class="cls-1" d="M67.84,48.37a4,4,0,1,0,5.51,1.47A4,4,0,0,0,67.84,48.37Z"/><path class="cls-1" d="M121.25,140.87a4,4,0,1,0,5.51,1.47A4,4,0,0,0,121.25,140.87Z"/><path class="cls-1" d="M48.3,121.32a4,4,0,1,0,5.5,1.48A4,4,0,0,0,48.3,121.32Z"/><path class="cls-1" d="M144.83,74.9a4,4,0,1,0-5.51-1.48A4,4,0,0,0,144.83,74.9Z"/><path class="cls-1" d="M52.33,67.91a4,4,0,1,0,1.47,5.51A4,4,0,0,0,52.33,67.91Z"/><path class="cls-1" d="M144.83,121.32a4,4,0,1,0,1.47,5.51A4,4,0,0,0,144.83,121.32Z"/><path class="cls-1" d="M71.88,140.87a4,4,0,1,0,1.47,5.51A4,4,0,0,0,71.88,140.87Z"/><path class="cls-1" d="M125.28,48.37a4,4,0,1,0,1.48,5.5A4,4,0,0,0,125.28,48.37Z"/></g></g></svg>