<svg xmlns="http://www.w3.org/2000/svg" viewBox="0 0 195.74 195.74"><defs><style>.cls-25{fill:#004789;}</style></defs><g id="Layer_2" data-name="Layer 2"><g id="Layer_1-2" data-name="Layer 1"><path class="cls-25" d="M195.74,4.39A4.4,4.4,0,0,0,191.34,0H99.1C45.13,0,.4,43.16,0,97.13a97.87,97.87,0,1,0,195.74.74ZM180.85,99.45c-.82,44.37-37,80.58-81.41,81.41A83,83,0,0,1,14.87,96.29c.83-44.37,37-80.59,81.42-81.41A83,83,0,0,1,180.85,99.45Z"/><path class="cls-25" d="M139.38,127.05c-2.79-14.94-11.17-25.55-25-31.91-.79-.37-.89-.56-.21-1.17,6.35-5.7,9.45-12.79,8.61-21.33-.93-9.63-6-16.45-14.64-20.72a27.41,27.41,0,0,0-9-2.36H95.78l-2.49.38a25.29,25.29,0,0,0-18.5,36.55A24.66,24.66,0,0,0,80.74,94c.57.48.74.78-.14,1.11a23.86,23.86,0,0,0-2.93,1.4c-12.52,6.91-20,17.36-22.23,31.53-.68,4.35-.4,8.73-.44,13.1,0,3.69,1.65,5.33,5.38,5.33h74.09c.4,0,.81,0,1.21,0a4.35,4.35,0,0,0,4.08-3.32,10.9,10.9,0,0,0,.17-3.12C139.94,135.68,140.19,131.33,139.38,127.05ZM79.28,74.8A18.2,18.2,0,1,1,97.42,92.9,18.06,18.06,0,0,1,79.28,74.8Zm54,63.66c0,.61-.25.89-.86.86H63.27c-1.63,0-1.6,0-1.64-1.65-.13-6.64.83-13.06,4.06-19,6-11,15.17-17.51,27.62-19a35.54,35.54,0,0,1,39.16,27.83A45.16,45.16,0,0,1,133.29,138.46Z"/><path class="cls-25" d="M139.74,93.78c-.87-.52-.85-.81-.27-1.58,5.44-7.29,6.28-15.11,2-23.13-3.78-7.07-10-10.59-18-11.12-.51,0-1.18-.2-1.47.28s.28,1,.58,1.44a25.56,25.56,0,0,1,3.59,6.51,2.36,2.36,0,0,0,1.52,1.54,16.65,16.65,0,0,1,6.89,4.91,9.49,9.49,0,0,1,2.58,6.2c0,5.39-2.51,9.23-7.32,11.6-2,1-3.1,2.58-3,4.28a4.5,4.5,0,0,0,3.77,4c11,2.6,19.89,12.51,19.28,26.37,0,.81-.36,1-1.1,1-1.28,0-2.57,0-3.85,0-.84,0-1.15.29-1,1.17a21.57,21.57,0,0,1,.62,5.36c0,1,.43,1.32,1.38,1.3,1.8,0,3.61-.06,5.42,0,2.58.08,4.42-.93,5.33-3.42V120.38a4.12,4.12,0,0,1-.15-.58C155.34,108.3,149.65,99.67,139.74,93.78Z"/><path class="cls-25" d="M55.46,103.26A24.38,24.38,0,0,1,65,98.73a4.49,4.49,0,0,0,3.67-3.67c.19-2.09-.7-3.56-2.78-4.6-.39-.19-.79-.38-1.18-.6C59,86.65,56.79,79.55,59.81,74.09a14.56,14.56,0,0,1,7.33-6.35c.5-.21,1.12-.29,1.34-.91a30.58,30.58,0,0,1,4.2-7.69c.61-.86.41-1.19-.7-1.18a18,18,0,0,0-3.11.26C61,59.65,55.28,64,52.34,71.4S50.57,85.82,55.4,92.16c.65.85.59,1.15-.3,1.65a32.86,32.86,0,0,0-11.94,11.48,33.49,33.49,0,0,0-5,19.41c0,1.86,0,3.15,0,4.43a4.42,4.42,0,0,0,4.5,4.76c2.17.08,4.34,0,6.51,0,.81,0,1.19-.31,1.16-1.13a24.06,24.06,0,0,1,.62-5.61c.17-.87-.19-1.08-.94-1.07-1.08,0-2.17,0-3.25,0-.72,0-1-.28-1-1,.06-1.68,0-3.36.19-5A24.5,24.5,0,0,1,55.46,103.26Z"/></g></g></svg>