<svg xmlns="http://www.w3.org/2000/svg" viewBox="0 0 195.74 195.74"><defs><style>.cls-1{fill:#f5871f;}</style></defs><g id="Layer_2" data-name="Layer 2"><g id="Layer_1-2" data-name="Layer 1"><path class="cls-1" d="M192.14,0h-93C45.13,0,.4,43.16,0,97.13a97.87,97.87,0,1,0,195.74.74V3.6A3.6,3.6,0,0,0,192.14,0ZM99.44,180.86A83,83,0,0,1,14.87,96.29c.83-44.37,37-80.59,81.42-81.41a83,83,0,0,1,84.56,84.56C180,143.82,143.81,180,99.44,180.86Z"/><path class="cls-1" d="M82.37,67.13a3.61,3.61,0,0,1,3.92.28c.2.14.32.14.48,0a6.15,6.15,0,0,1,.62-.63c.16-.15.15-.25,0-.38a4.87,4.87,0,0,0-3.06-1.15,5.07,5.07,0,0,0-5,3.15.38.38,0,0,1-.41.27H77.52c-.2,0-.31.07-.3.28s0,.43,0,.64.07.28.27.28h.79c.65,0,.65,0,.66.64a1.47,1.47,0,0,0,0,.21c0,.21-.08.27-.27.27H77.48c-.18,0-.26.07-.26.25s0,.43,0,.64.08.31.3.31c.46,0,.92,0,1.38,0a.44.44,0,0,1,.48.31,4.9,4.9,0,0,0,1.54,2,5.17,5.17,0,0,0,6.41,0c.23-.19.21-.3,0-.47s-.32-.31-.48-.47c-.31-.32-.31-.32-.68-.07a3.68,3.68,0,0,1-5.12-1c0-.08-.16-.17-.12-.27s.18-.05.28-.05c.7,0,1.4,0,2.1,0,1,0,.81.15.83-.85,0-.27-.09-.35-.35-.35H81.17c-.77,0-.74.17-.74-.75,0-.26.09-.37.36-.36.49,0,1,0,1.49,0h1.07c.91,0,.78.16.8-.81,0-.29-.09-.39-.38-.38-.86,0-1.73,0-2.59,0-.08,0-.19,0-.23,0s0-.17.09-.24A3.42,3.42,0,0,1,82.37,67.13Z"/><path class="cls-1" d="M114.09,65.29h-1.6a.2.2,0,0,0-.16.13l-.45.88c-.33.63-.66,1.25-1,1.88l-.46.89s0,0,0,.05a1.21,1.21,0,0,1-.09-.2c-.18-.36-.38-.72-.58-1.07l-1.1-1.93-.29-.5a.25.25,0,0,0-.17-.13h-1.62a.24.24,0,0,0-.18.16.18.18,0,0,0,0,.16l.48.76c.36.59.73,1.17,1.09,1.75l.84,1.34v0s0,0,0,0,0,0,0,0h-1.56a.25.25,0,0,0-.25.16.34.34,0,0,0,0,.1v.63a.24.24,0,0,0,.26.26h2.12c.08,0,.08,0,.08.07v.44c0,.07,0,.07-.07.07h-2.12a.32.32,0,0,0-.19,0,.24.24,0,0,0-.08.19v.66c0,.15.1.23.26.23h2.09c.12,0,.11,0,.11.1v2.09a.34.34,0,0,0,0,.1.24.24,0,0,0,.2.16h1.42a.22.22,0,0,0,.19-.16.22.22,0,0,0,0-.08V72.47c0-.07,0-.07.08-.07h2.12a.24.24,0,0,0,.27-.27v-.6a.24.24,0,0,0-.27-.27h-2.12c-.08,0-.08,0-.08-.08v-.43c0-.07,0-.07.07-.07h2.23a.22.22,0,0,0,.17-.22v-.68a.23.23,0,0,0-.25-.24h-1.57s0,0,0,0,0,0,0,0c.46-.76.93-1.52,1.39-2.29.32-.51.63-1,.94-1.54A.21.21,0,0,0,114.09,65.29Z"/><path class="cls-1" d="M131,60.25c0-5.24-3.09-8.32-8.32-8.32H72c-5.23,0-8.31,3.08-8.32,8.32V138.2c0,5.23,3.09,8.31,8.32,8.31q25.35,0,50.68,0c5.23,0,8.32-3.08,8.32-8.31ZM93.33,110c0,2.11-.79,3-2.83,3.06q-8.2.1-16.41,0c-1.94,0-2.76-1-2.76-2.94,0-5.47,0-10.94,0-16.41,0-2,.86-2.83,2.84-2.84q8.11-.06,16.22,0c2.14,0,2.91.81,2.94,2.92,0,2.73,0,5.46,0,8.2S93.35,107.31,93.33,110Zm0,27.5c0,2-.79,2.74-2.87,2.75-5.4,0-10.81,0-16.22,0-2.13,0-2.88-.77-2.9-2.92,0-2.73,0-5.46,0-8.2s0-5.46,0-8.2c0-2,.69-2.69,2.7-2.7q8.3-.06,16.58,0c2,0,2.7.7,2.72,2.69C93.35,126.43,93.36,132,93.32,137.48Zm30-.07c0,2-.8,2.81-2.82,2.82q-8.19,0-16.4,0c-2,0-2.76-.77-2.77-2.84q0-8.2,0-16.4c0-2.09.69-2.75,2.81-2.78,2.74,0,5.47,0,8.2,0s5.47,0,8.2,0c2.11,0,2.78.7,2.79,2.8C123.31,126.47,123.32,131.94,123.29,137.41Zm0-27.22c0,1.85-.83,2.82-2.68,2.84q-8.28.1-16.58,0c-1.89,0-2.72-1-2.73-2.78q0-8.3,0-16.59c0-2,.81-2.8,2.84-2.81q8.2-.06,16.4,0c1.87,0,2.72.91,2.75,2.76,0,2.79,0,5.58,0,8.38S123.32,107.45,123.29,110.19Zm1.4-31.52c0,2.34-.74,3-3.13,3q-12.23,0-24.44,0H73.22c-2.61,0-3.29-.68-3.3-3.26,0-3.51,0-12.87,0-16.38,0-2.42.79-3.18,3.22-3.19h48.34c2.41,0,3.19.78,3.2,3.22C124.71,65.68,124.71,75.1,124.69,78.67Z"/><path class="cls-1" d="M119.82,102.38c0-1,.1-2.09-1.45-2.09q-6.06,0-12.13,0c-1.68,0-1.49,1.16-1.5,2.22s-.11,2.23,1.54,2.19c2,0,3.93,0,5.89,0h6.24C120.11,104.68,119.8,103.41,119.82,102.38Z"/><path class="cls-1" d="M118.49,126.87c-4.16-.07-8.32-.08-12.49,0-1.8,0-1.14,1.6-1.25,2.62s.27,1.69,1.49,1.67c2-.05,3.93,0,5.89,0s4.17,0,6.25,0c1.27,0,1.5-.74,1.43-1.73S120.3,126.9,118.49,126.87Z"/><path class="cls-1" d="M112.34,132.73c-1.24,0-1.87.34-1.86,1.7s.57,1.84,1.84,1.67c1.36.2,1.77-.49,1.76-1.74S113.52,132.73,112.34,132.73Z"/><path class="cls-1" d="M112.32,124.75c1.36.19,1.77-.5,1.76-1.75s-.56-1.62-1.74-1.62-1.87.34-1.86,1.69S111.05,124.92,112.32,124.75Z"/><path class="cls-1" d="M87.44,100.29c-2.88,0-2.88,0-2.9-2.9,0-.47,0-1-.05-1.42a1,1,0,0,0-.54-.85,2.46,2.46,0,0,0-3.82,2.21c0,2.94,0,2.94-3,3-2.18,0-2.23.17-2.33,2.32-.07,1.67.62,2.15,2.21,2.12,3.4-.09,3.22-.28,3.14,3.16,0,1.61.49,2.21,2.14,2.19s2.38-.38,2.32-2.19c-.1-3.41-.37-3.19,3.11-3.19a1.08,1.08,0,0,1,.18,0c1.54.16,2.26-.48,2-1.89C89.91,100.4,89.8,100.31,87.44,100.29Z"/><path class="cls-1" d="M88.87,125.6c-.29-1-1.19-1.43-1.79-2.13s-1.23-.7-2,0c-.9.83-1.56,2.31-2.79,2.31s-1.89-1.47-2.79-2.31c-.72-.67-1.3-.71-2,0-.4.44-.83.86-1.27,1.26a1,1,0,0,0,0,1.65c.93.91,2.41,1.8,2.55,2.85.17,1.26-1.6,2-2.5,3-.63.7-.62,1.2.05,1.79a12.49,12.49,0,0,1,1.26,1.26c.6.67,1.11.69,1.79.05,1-.87,1.65-2.46,2.9-2.45s1.92,1.62,2.9,2.46c.42.36.75.67,1.39.28,2.32-1.4,2.5-2.54.63-4.41s-1.85-1.85.08-3.81A6,6,0,0,0,88.87,125.6Z"/></g></g></svg>