<svg xmlns="http://www.w3.org/2000/svg" viewBox="0 0 2173.7 716.25"><defs><style>.cls-1{isolation:isolate;}.cls-2{mix-blend-mode:darken;}.cls-3{fill:#eb088c;}.cls-14,.cls-3,.cls-4,.cls-5,.cls-7,.cls-8{mix-blend-mode:multiply;}.cls-15,.cls-4{fill:#00aeef;}.cls-5{fill:#00ac65;}.cls-6{fill:#004789;}.cls-10,.cls-6,.cls-9{mix-blend-mode:hard-light;}.cls-7{fill:#f0efef;}.cls-8{fill:none;stroke:#71c385;stroke-miterlimit:10;stroke-width:22.5px;opacity:0.3;}.cls-11,.cls-9{fill:#efc41b;}.cls-12,.cls-13{fill:#fff;}.cls-13{opacity:0.5;}</style></defs><g class="cls-1"><g id="Layer_1" data-name="Layer 1"><g class="cls-2"><path class="cls-3" d="M1770,711.91V523.19c0-109.45-87.55-200.18-197-201-110.32-.82-200,88.37-200,198.5,0,109.64,88.88,198.52,198.52,198.52h191.21A7.3,7.3,0,0,0,1770,711.91Zm-366.84-188a168.36,168.36,0,0,1,171.52-171.52c90,1.67,163.47,75.12,165.14,165.13A168.37,168.37,0,0,1,1568.25,689C1478.24,687.35,1404.79,613.9,1403.12,523.88Z" transform="translate(1.8 -134.54)"/><path class="cls-4" d="M1652.22,139.93a5.39,5.39,0,0,0-5.39-5.39H1456.2c-109.46,0-200.19,87.55-201,197-.82,110.33,88.37,200,198.51,200,109.63,0,198.51-88.88,198.51-198.51Z" transform="translate(1.8 -134.54)"/><path class="cls-5" d="M1346.64,322.2c-109.45.81-197,91.54-197,201V711.91a7.3,7.3,0,0,0,7.3,7.3h191.21c109.63,0,198.51-88.88,198.51-198.52C1546.66,410.57,1457,321.38,1346.64,322.2Z" transform="translate(1.8 -134.54)"/></g><path class="cls-6" d="M795.22,788.08c.08,12.15,4.42,22.6,12.81,32,8.87,9.9,20.51,13.8,32.08,18.34,3.49,1.37,7.1,2.45,10.61,3.8,3.23,1.25,5.16,3.47,4.55,7.21h45.14a58.39,58.39,0,0,1,1.71-5.74c1.4-3.48,6.65-5.86,10.48-4.38,4,1.54,1.2,4.64,1,7.08a14.43,14.43,0,0,1-1,3h45.14c-.17-3.37-.34-6.74-.47-9.42,12.55,0,24.74-1.27,36.54.36s20.69-2.26,30.21-7.88a23.47,23.47,0,0,0,11.67-16.52c1.16-5.7,1-11.65,1.5-17.71,1.67-.15,3.21-.37,4.75-.4,18.78-.39,37.56-1.1,56.33-.93,7.69.07,15,.38,20.94-5.36.14-.13.56,0,1.35.13a43.28,43.28,0,0,1-1.12,4.9c-4.09,11.28-7.8,22.72-12.55,33.72a41.07,41.07,0,0,0-3.4,19.11H1190c2.81-6.56,5.83-13.06,8.41-19.72,6.17-16,12-32.13,18.31-48a42.13,42.13,0,0,1,7.49-11.66c8.91-10.23,8.65-22.51,6.46-34.24-2.24-12-11-19.39-23.17-21.85-19.11-3.87-38.34-7.16-57.39-11.24a212.21,212.21,0,0,0-45.55-4.7,10.08,10.08,0,0,1-5.6-1.9q-10.61-7.71-20.88-15.87a93,93,0,0,0-16.76-10.76c-6.3-3.12-11.7-8.75-16.39-14.23-4.18-4.87-1.83-9.93,4.77-10.71,7.89-.92,15.93-.41,23.86-1.06,11.27-.92,22.08-3.35,30.7-11.58,2.45-2.33,4.86-5.16,10-4.74-1.65,2.15-2.64,3.61-3.8,4.92-3.33,3.8-2.37,7.31,2.58,8.52a34.44,34.44,0,0,0,7.89,1c43.72.06,87.44,0,131.16.09,6.38,0,9.2-4.8,11.5-9a10.36,10.36,0,0,0-1.82-12.63c-2.79-2.74-5.56-5.64-8.82-7.7-1.74-1.09-4.51-.54-6.8-.77-2.59-.26-5.68.23-7.65-1-3.11-2-5.54-2.18-8.61-.34a65.8,65.8,0,0,1-8.37,4.15c-3.52,1.5-6.88,1.65-10-1.4a5.9,5.9,0,0,0-4.12-1.3c-14.16,1.13-28.29,2.44-42.44,3.66-4.29.37-6.92-1-8-5.79-.7-3-3.82-5.31-5-8.27-3.44-8.37-10-10.55-18.28-10.67-4.66-.07-9.29-1.25-14-1.53-9.83-.58-18,4.2-26.19,8.69a43.11,43.11,0,0,0-7.23,5.2c-7.52,6.43-16.34,7.58-25.13,4.54-8-2.78-15.94-2.46-24-2-2.22.12-4.44,1.2-6.26-2.09-1-1.84-5.13-1.76-7.53-3.09-6-3.3-6.1-4.74-3-10.76,6.92-13.31,14.05-26.53,20.28-40.16,2.59-5.67,3.25-12.25,4.42-18.49a7.54,7.54,0,0,0-1.17-5.34c-4.67-6.21-2.56-12.68-1.13-19.12,1.24-5.6,3.29-11.08,4-16.74.52-4.24-.41-8.68-.9-13-1.1-9.77-2.46-19.5-3.43-29.28-.51-5-2.59-8.45-7.35-10.35-5.47-2.18-10.85-4.57-16.26-6.89-1.55-.67-3.05-1.44-5.82-2.75,2.54-2.82,4.64-5.05,6.62-7.38a31.42,31.42,0,0,0,2.8-4c.47-.75.5-2.09,1.11-2.41,4.37-2.22,5.67-5.77,4.36-10.53,1.85-.34,3.21-.54,4.55-.84,3.92-.87,5.81-2.92,5.1-7.3s-.68-8.72-1.07-13.07.82-7.61,4-11.26c3.36-3.92,5.43-9.63,6.31-14.85a129.54,129.54,0,0,0,1.93-26.58c-.22-5.68-2.82-11.34-4.82-16.84-.57-1.56-2.84-2.45-4.22-3.77-1.06-1-2.49-2.07-2.81-3.34a70.18,70.18,0,0,1-1.92-11.05c-.89-10.31-10-19.1-20.33-19.28-3.13-.06-6.27,0-9.39-.13-4-.16-6-2.27-5.54-6.27a23.66,23.66,0,0,0-5-18,12.9,12.9,0,0,0-2.35-2.85c-2.85-2-3.65-4.6-3.56-8.07.16-6.37-3.16-9.87-9.29-9.78-5.12.08-9.37-.61-11-6.36a3.05,3.05,0,0,0-1.83-1.94c-3.51-.49-6.45,2.51-10.74.42-4-1.92-5.87,3.16-8.32,5.9-1.57,1.77-4.21,3.51-6.44,3.6-7.08.29-11.8,2.87-13.73,10.08-.47,1.72-2.22,3.38-3.79,4.47a38.07,38.07,0,0,0-15.68,22.59c-1,4.07-2.34,8.08-3.21,12.19-1.7,8,1.25,15.19,5.07,21.83,4.28,7.43,6.55,15.27,5.56,23.63-2.21,18.59,2.91,34.89,14.3,49.41,4.23,5.39,3.46,10.86,1.39,16.73a21,21,0,0,0-1.19,8.11c.08,1.17,2.24,2.21,4.22,4-2,3.6-4.26,8-6.93,12.12-5.45,8.39-11.14,16.62-16.75,24.9a10.26,10.26,0,0,1-2.38,2.86c-16.79,11.32-25.82,28.35-32.94,46.34-6.19,15.66-11.22,31.8-16.18,47.9-1.69,5.49-6.71,5.93-10,8.84-.32.28-1.46-.2-2.12-.52-7-3.43-14-6.95-21-10.34-7.77-3.74-13.47-.44-13.49,8.29,0,4.92,1.2,9.86,2,14.77.77,4.75,1.77,9.46,2.58,14.2.42,2.49-.73,3.5-3.28,4-7.1,1.32-7.82,2-7.9,9.2-.07,5.45-.07,11.1,1.26,16.31,4.56,18,3.64,36,1.23,54-2.63,19.64-5.57,39.24-8.18,58.89-1.14,8.63-1.22,17.44-2.83,26C794.16,757.46,795.12,772.79,795.22,788.08Zm346-179,1.83-.53q2.82,4.11,5.63,8.23l-1.35,1.82c-1.79-.67-4.55-.87-5.16-2.13C1141.12,614.35,1141.44,611.57,1141.2,609.07Zm-16.38,11.64c.55-3.88,3-5.1,7.87-4.3a65.76,65.76,0,0,1-4.08,6.28,3,3,0,0,1-2.77.78A3.27,3.27,0,0,1,1124.82,620.71ZM977.41,427c5.15-5.8,7-6.1,13.68-2.28,1.63.94,3.34,1.72,5,2.67,3.84,2.27,4,3.92.49,6.58-2.83,2.13-5.87,4-10.16,6.88l7.11,3.4c-1.18,4-3,7.87-3,11.68,0,1.36,4.59,3.55,7.2,3.74s5.15-1.74,8.47-3a5.84,5.84,0,0,1,1.88,1.81c5.14,9.63,10.29,19.26,15.14,29a6,6,0,0,1-1.77,8c-2.43,1.91-2,3.84.69,5.55,1.07.67,2.45,2.35,2.26,3.29-.8,4.05-2.13,8-3.27,12a19.15,19.15,0,0,1-3.18-5.7c-1.81-4.14-3.23-8.55-5.63-12.34-9.82-15.53-20-30.85-29.93-46.31-2-3.14-3.39-6.71-5.55-9.74C972.23,435.81,972.21,432.87,977.41,427ZM812.72,706.26a392,392,0,0,0,8.75-56.68c.88-12,.63-24.07,1-36.11.11-3.55.6-7.09.92-10.63l1.17-.05c.53,1.9,1.23,3.78,1.57,5.72,2.56,14.24,5.11,28.49,7.53,42.75,2,11.53,3.85,23.08,5.5,34.66.81,5.64,5.14,8,9.36,9.37,1.9.62,5.5-2,7.49-4,2.62-2.63,4.41-6.08,7-9.78a70.52,70.52,0,0,1,5.73,5.63c4.71,5.78,2.67,12.29,1.08,18.34-3.61,13.65-6.26,27.36-6.26,41.53a78.11,78.11,0,0,1-1,9c-5,.85-9.7,1.48-14.28,2.44-9,1.89-15.31,7.3-17.86,16.07-3.24,11.12-3.69,22.26,3.65,32.3,3.67,5,7.57,9.9,11.36,14.85,1.27,1.66,2.49,3.36,3.73,5-.34.41-.67.82-1,1.22-8.77-1.46-17.32-4.17-24.16-9.88-9.88-8.25-15.08-19.7-16.54-32.22C804.34,759.06,806.87,732.41,812.72,706.26Z" transform="translate(1.8 -134.54)"/><path class="cls-7" d="M1191.45,263.08h177.87a8.79,8.79,0,0,1,8.79,8.79V448.16a8.79,8.79,0,0,1-8.79,8.79H1191.45a7.2,7.2,0,0,1-7.2-7.2V270.28A7.2,7.2,0,0,1,1191.45,263.08Z" transform="translate(1642.99 -1055.7) rotate(90)"/><path class="cls-7" d="M995.92,458.62h177.87a8.79,8.79,0,0,1,8.79,8.79V643.69a8.79,8.79,0,0,1-8.79,8.79H995.92a7.2,7.2,0,0,1-7.2-7.2V465.82A7.2,7.2,0,0,1,995.92,458.62Z" transform="translate(1642.99 -664.64) rotate(90)"/><path class="cls-7" d="M1191.45,458.62h177.87a8.79,8.79,0,0,1,8.79,8.79V643.69a8.79,8.79,0,0,1-8.79,8.79H1191.45a7.2,7.2,0,0,1-7.2-7.2V465.82A7.2,7.2,0,0,1,1191.45,458.62Z" transform="translate(1838.52 -860.17) rotate(90)"/><path class="cls-7" d="M1387,458.62h177.87a8.79,8.79,0,0,1,8.79,8.79V643.69a8.79,8.79,0,0,1-8.79,8.79H1387a7.2,7.2,0,0,1-7.2-7.2V465.82A7.2,7.2,0,0,1,1387,458.62Z" transform="translate(2034.06 -1055.71) rotate(90)"/><path class="cls-7" d="M604.85,654.15H782.72a8.79,8.79,0,0,1,8.79,8.79V839.22a8.79,8.79,0,0,1-8.79,8.79H604.85a7.2,7.2,0,0,1-7.2-7.2V661.35A7.2,7.2,0,0,1,604.85,654.15Z" transform="translate(1447.45 -78.04) rotate(90)"/><path class="cls-7" d="M800.38,654.15H978.26a8.79,8.79,0,0,1,8.79,8.79V839.22a8.79,8.79,0,0,1-8.79,8.79H800.38a7.2,7.2,0,0,1-7.2-7.2V661.35A7.2,7.2,0,0,1,800.38,654.15Z" transform="translate(1642.98 -273.57) rotate(90)"/><path class="cls-7" d="M995.92,654.15h177.87a8.79,8.79,0,0,1,8.79,8.79V839.22a8.79,8.79,0,0,1-8.79,8.79H995.92a7.2,7.2,0,0,1-7.2-7.2V661.35A7.2,7.2,0,0,1,995.92,654.15Z" transform="translate(1838.52 -469.11) rotate(90)"/><path class="cls-7" d="M1191.45,654.15h177.87a8.79,8.79,0,0,1,8.79,8.79V839.22a8.79,8.79,0,0,1-8.79,8.79H1191.45a7.2,7.2,0,0,1-7.2-7.2V661.35A7.2,7.2,0,0,1,1191.45,654.15Z" transform="translate(2034.05 -664.64) rotate(90)"/><path class="cls-7" d="M1387,654.15h177.87a8.79,8.79,0,0,1,8.79,8.79V839.22a8.79,8.79,0,0,1-8.79,8.79H1387a7.2,7.2,0,0,1-7.2-7.2V661.35A7.2,7.2,0,0,1,1387,654.15Z" transform="translate(2229.59 -860.18) rotate(90)"/><path class="cls-7" d="M1582.52,654.15h177.87a8.79,8.79,0,0,1,8.79,8.79V839.22a8.79,8.79,0,0,1-8.79,8.79H1582.52a7.2,7.2,0,0,1-7.2-7.2V661.35A7.2,7.2,0,0,1,1582.52,654.15Z" transform="translate(2425.12 -1055.71) rotate(90)"/><line class="cls-8" x1="990.97" y1="375.3" x2="2173.7" y2="375.3"/><line class="cls-8" y1="506.38" x2="1964.85" y2="506.38"/><line class="cls-8" y1="550.08" x2="2172.01" y2="550.08"/><line class="cls-8" x1="523.06" y1="593.77" x2="2172.01" y2="593.77"/><path class="cls-9" d="M1367.56,405.65a19.44,19.44,0,0,0-23,13.23c-1.93,6.38-.69,12.3,3.31,18-16.09,20.53-32,40.84-48,61a4.81,4.81,0,0,1-4,1.07q-28.56-6.44-57.06-13.19a9.6,9.6,0,0,0-9,2q-31,24.36-62.14,48.54c-4.79,3.74-5.8,6.77-3.32,9.87s5.84,2.66,10.45-.93q29.46-23,58.9-46a6.71,6.71,0,0,1,6.4-1.54c18.75,4.49,37.59,8.58,56.31,13.18,5,1.23,8,0,11.14-4,15.67-20.33,31.6-40.45,47.39-60.68,1.46-1.88,2.66-2.87,5.48-2.41,10.39,1.69,19.83-5.39,21.78-15.85A19.41,19.41,0,0,0,1367.56,405.65Zm-4.2,26.72a8,8,0,0,1-8.18-7.86,8.22,8.22,0,0,1,7.77-8,8.13,8.13,0,0,1,8.11,8A7.8,7.8,0,0,1,1363.36,432.37Z" transform="translate(1.8 -134.54)"/><g class="cls-10"><rect class="cls-11" x="1303.31" y="521.59" width="183.59" height="56.72" rx="3.34" transform="translate(1946.86 -979.69) rotate(90)"/></g><g class="cls-10"><rect class="cls-11" x="1252.9" y="554.67" width="117.44" height="56.72" rx="3.34" transform="translate(1896.44 -863.12) rotate(90)"/></g><g class="cls-10"><rect class="cls-11" x="1193.26" y="578.52" width="69.73" height="56.72" rx="3.34" transform="translate(1836.8 -755.78) rotate(90)"/></g><g id="G5nYOa"><path class="cls-12" d="M1612.44,673.7v13.12a109.24,109.24,0,0,1-9.79,29.57c-1.45,2.91-3.21,3.89-6.41,3.88-31-.06-62.06,0-93.08.1-1.26,0-2.51.17-3.76.26H1358.59c-5.29-5.5-4.28-11.68,2.5-15.2a25.13,25.13,0,0,1,6.19-2.1,95.62,95.62,0,0,1,16-2.15c1.77-.1,3.55-.17,3.5-2.85-.18-9.62,3.19-17.54,11.32-23.19,2.13-1.47,1.76-3.34-.65-4.31-3.43-1.38-6.9-2.65-10.32-4.08a27.35,27.35,0,0,1-9.47-6.11c-5.05-5.24-5.44-9.86-1.26-15.79a10.54,10.54,0,0,0,1.93-4.57c1.64-10.45,5.53-19.78,14.08-26.51a8.22,8.22,0,0,0,3.31-8.79,10.79,10.79,0,0,1-.19-1.5c-.29-5-.56-10.09.45-15.09.69-3.43,2.33-4.21,5.43-2.66a32.25,32.25,0,0,1,8,5.62,54.14,54.14,0,0,0,14.26,9.85c2.65,1.28,5.19,2.76,7.78,4.17a44.48,44.48,0,0,1,19.24,19.36,157.74,157.74,0,0,0,8,14.33c6.62,10.38,12.83,11.84,23.42,5.41A104.5,104.5,0,0,1,1505,634c16.67-5.25,32.82-5,48.63,3.41,9.59,5.13,18.7,11,27.91,16.71,1.4.87,3.13,2.89,4.58,1.6s0-3.49-.73-5.12a92.91,92.91,0,0,0-12.68-20.86c-6.19-7.75-12.8-15.16-19.13-22.8-7.78-9.4-13-19.9-14.22-32.26-1.09-11,3.42-19,13.6-23.3,7.84-3.3,16.12-4,24.49-3.63,8.87.34,15.64,4.64,20.86,11.6,4.09,5.45,6.57,11.7,8.78,18.07a6.32,6.32,0,0,1,.32,2,4.13,4.13,0,0,1-5.58,4.24,7.38,7.38,0,0,1-4.51-3.79c-1.18-2.23-2.27-4.51-3.25-6.83a61.84,61.84,0,0,0-4.86-9.39c-2.64-4.09-6.46-5.94-11.17-6.36-6.92-.61-13,1.71-19,4.89-9.53,5.05-8.73,14.63-5.07,20.73a34.87,34.87,0,0,0,5.2,6.48q8.05,8.18,16.14,16.33A97.42,97.42,0,0,1,1594.52,633C1600.84,646.39,1609.09,659,1612.44,673.7Z" transform="translate(1.8 -134.54)"/></g><polygon class="cls-13" points="1182.47 229.95 731.42 715.25 1188.33 716.25 1305.97 300.49 1182.47 229.95"/><g id="d3R6Wv"><path class="cls-12" d="M1414.51,720.05c-27,0-50.1,0-77,.05-2.15,0-2.64-.64-2.57-2.69.17-4.86.14-9.74,0-14.6-.05-1.84.55-2.34,2.34-2.33,17.34,0,30.89,0,48.23,0h28.6c2.78,0,2.79,0,2.79-2.68q0-17.39,0-34.76a3.68,3.68,0,0,0-1.38-3.19c-12.41-10.44-9.28-29.34,5.82-35.23a3.7,3.7,0,0,0,2.08-1.82q10.1-19.08,20.24-38.14,14.35-27,28.73-53.88,10.59-19.87,21.17-39.74a4.75,4.75,0,0,0-1.61-6.14q-16-11.39-32-22.74-23.82-16.87-47.67-33.73l-72.17-51.1c-7.55-5.35-15.11-10.68-22.62-16.08a5.29,5.29,0,0,0-4.19-1.15,18.53,18.53,0,0,1-9.45-1.3c-.8-.28-1.66-1.42-2.52-.18s-1.5,2.27-.58,3.76a68,68,0,0,1,4.19,8.47c4.73,10.78,7.79,21.95,7.51,33.83-.19,8.16-2.17,16-4.63,23.72a42.35,42.35,0,0,0-2.38,10.18c-.11,1.84-1.36,1.78-2.66,1.61a52.21,52.21,0,0,1-11.7-3.1c-12.17-4.56-23.55-10.75-34.76-17.26-23.61-13.72-46.3-28.85-68.57-44.63-2.91-2.06-5.79-4.17-8.74-6.17-1.32-.89-1.26-1.63-.28-2.78a105.34,105.34,0,0,1,44.9-31.55,85.29,85.29,0,0,1,19.87-5,4.23,4.23,0,0,0,3.49-2.42c6.08-10.81,12.26-21.57,18.65-32.2,4.49-7.46,9.22-14.77,14.09-22,4.64-6.87,11.29-9.73,19.18-10.29a46.11,46.11,0,0,1,14.72.92,1.8,1.8,0,0,0,2.41-1.19c1.36-2.84,2.82-5.64,4.16-8.49.66-1.43,1.39-1.7,2.87-1,4.38,2.2,4.41,2.13,2.2,6.54-1.08,2.14-2.09,4.32-3.24,6.42a2.09,2.09,0,0,0,.52,3,35,35,0,0,1,10.16,16.15c2.45,8.7.69,16.62-4,24.14-2.26,3.6-4.14,7.43-6.27,11.1-.7,1.21-.53,1.87.62,2.67a19.59,19.59,0,0,1,8.31,13.43,3.65,3.65,0,0,0,1.71,2.59q33.93,24,67.84,48,25.42,18,50.85,36,26.83,19,53.63,38.14a6.57,6.57,0,0,0,5.46,1.26c10.47-1.84,21.56,6.75,22.63,17.35s-4.07,18.87-14.22,22.48a4.51,4.51,0,0,0-2.46,2.58q-8.24,15.4-16.43,30.85-26,48.72-51.93,97.43a7.44,7.44,0,0,0-.76,5.61c1.93,8.41-.31,15.59-7.06,21.16a3.45,3.45,0,0,0-1.39,3c0,11.72.06,23.45,0,35.17,0,1.9.58,2.46,2.47,2.45,17.75,0,36.78,0,54.54,0,3.14,0,3.14,0,3.14,3.2v13c0,3.41,0,3.41-3.32,3.41h-81.48Zm-85.18-370.16c-1,.65-1.3,1.8-2,2.56-1.06,1.07-1,1.74.31,2.69,10.27,7.19,20.47,14.48,30.71,21.73q18.87,13.35,37.76,26.7,20.88,14.79,41.74,29.63l38.08,27q9,6.36,17.95,12.71c.41.29,1,1,1.38.5a13,13,0,0,0,2.32-3.83c.27-.82-1-1.29-1.74-1.79q-21.88-15.52-43.78-31L1395.3,396.6l-64.89-46C1330.09,350.35,1329.74,350.15,1329.33,349.89Zm109.92,276.78a5.9,5.9,0,0,0,1.71-2.47q13.65-25.56,27.25-51.14Q1480,551,1491.68,529c4.51-8.47,9-17,13.56-25.38.76-1.4.58-2.1-.9-2.55a2.66,2.66,0,0,1-.9-.5c-1.42-1.21-2.26-.84-3.11.78q-13.51,25.52-27.13,51-12.71,23.85-25.42,47.71-6.09,11.41-12.14,22.85c-.26.5-1,1.23-.45,1.63A35.21,35.21,0,0,0,1439.25,626.67Z" transform="translate(1.8 -134.54)"/></g><g class="cls-10"><path class="cls-11" d="M1830,784.14h-31.65a7,7,0,0,0,0,14H1830a7,7,0,0,0,0-14Z" transform="translate(1.8 -134.54)"/><path class="cls-11" d="M1739.14,702.25h-8.65v-8.81a7,7,0,1,0-14,0v8.81h-9a7,7,0,0,0,0,14h9v8.82a7,7,0,0,0,14,0v-8.82h8.65a7,7,0,0,0,0-14Z" transform="translate(1.8 -134.54)"/><path class="cls-11" d="M1814.21,778.37a5.76,5.76,0,1,0-5.77-5.76A5.76,5.76,0,0,0,1814.21,778.37Z" transform="translate(1.8 -134.54)"/><circle class="cls-11" cx="1816" cy="675.15" r="5.76"/><path class="cls-11" d="M1829.56,702.25h-31.64a7,7,0,1,0,0,14h31.64a7,7,0,1,0,0-14Z" transform="translate(1.8 -134.54)"/><path class="cls-11" d="M1819.89,599h-4.75a.72.72,0,0,0-.47.4c-.44.87-.89,1.74-1.34,2.61-1,1.86-1.94,3.71-2.87,5.59-.44.88-.92,1.74-1.34,2.63a.37.37,0,0,1-.09.14,4.48,4.48,0,0,1-.29-.58c-.52-1.09-1.11-2.15-1.71-3.2-1.1-1.9-2.18-3.8-3.27-5.7-.28-.5-.57-1-.85-1.48a.79.79,0,0,0-.5-.41h-4.81a.72.72,0,0,0-.53.48.54.54,0,0,0,.08.48l1.42,2.27,3.24,5.17q1.26,2,2.5,4l0,0s.07.07.05.12-.09,0-.14,0h-4.64a.71.71,0,0,0-.72.47.85.85,0,0,0,0,.32c0,.62,0,1.24,0,1.86a.7.7,0,0,0,.77.76h6.3c.22,0,.22,0,.22.22v1.29c0,.2,0,.2-.2.2h-6.29a.9.9,0,0,0-.55.17.67.67,0,0,0-.24.56c0,.65,0,1.3,0,1.94a.67.67,0,0,0,.75.71h6.21c.36,0,.32,0,.32.32v6.18a1.08,1.08,0,0,0,0,.31c.08.3.31.4.57.48H1811a.72.72,0,0,0,.56-.48.69.69,0,0,0,0-.25v-6.33c0-.23,0-.23.22-.23h6.31a.7.7,0,0,0,.79-.79v-1.78a.73.73,0,0,0-.81-.81h-6.27c-.24,0-.24,0-.24-.23V615.2c0-.18,0-.18.19-.18h6.13a1.77,1.77,0,0,0,.51,0,.63.63,0,0,0,.48-.66c0-.67,0-1.34,0-2a.71.71,0,0,0-.74-.71h-4.66s-.12,0-.15,0,0-.09.06-.14l4.14-6.78,2.78-4.57A.65.65,0,0,0,1819.89,599Z" transform="translate(1.8 -134.54)"/><path class="cls-11" d="M1857.86,560.12H1678a7.22,7.22,0,0,0-7.2,7.2V840.81a7.22,7.22,0,0,0,7.2,7.2h179.9a7.22,7.22,0,0,0,7.2-7.2V567.32A7.22,7.22,0,0,0,1857.86,560.12ZM1756.77,816.87a7.36,7.36,0,0,1-7.34,7.34h-51.55a7.36,7.36,0,0,1-7.34-7.34V765.32a7.36,7.36,0,0,1,7.34-7.34h51.55a7.36,7.36,0,0,1,7.34,7.34Zm0-81.83a7.37,7.37,0,0,1-7.34,7.34h-51.55a7.36,7.36,0,0,1-7.34-7.34V683.49a7.36,7.36,0,0,1,7.34-7.34h51.55a7.36,7.36,0,0,1,7.34,7.34Zm90.55,81.83a7.36,7.36,0,0,1-7.34,7.34h-51.55a7.36,7.36,0,0,1-7.34-7.34V765.32a7.36,7.36,0,0,1,7.34-7.34H1840a7.36,7.36,0,0,1,7.34,7.34Zm0-81.83a7.36,7.36,0,0,1-7.34,7.34h-51.55a7.37,7.37,0,0,1-7.34-7.34V683.49a7.36,7.36,0,0,1,7.34-7.34H1840a7.36,7.36,0,0,1,7.34,7.34Zm0-96.31a7.13,7.13,0,0,1-7.11,7.11h-144.6a7.13,7.13,0,0,1-7.11-7.11v-52a7.13,7.13,0,0,1,7.11-7.11h144.6a7.13,7.13,0,0,1,7.11,7.11Z" transform="translate(1.8 -134.54)"/><path class="cls-11" d="M1739.8,777.21a7,7,0,0,0-9.91,0l-6.24,6.24-6.23-6.24a7,7,0,0,0-9.91,0h0a7,7,0,0,0,0,9.91l6.23,6.24-6.23,6.23a7,7,0,0,0,0,9.91h0a7,7,0,0,0,9.91,0l6.23-6.23,6.24,6.23a7,7,0,1,0,9.91-9.91l-6.24-6.23,6.24-6.24A7,7,0,0,0,1739.8,777.21Z" transform="translate(1.8 -134.54)"/><path class="cls-11" d="M1725.84,604.49a10.7,10.7,0,0,1,11.61.81c.6.42,1,.42,1.42-.12a23.32,23.32,0,0,1,1.86-1.86c.47-.44.44-.73-.06-1.14a14.6,14.6,0,0,0-9.07-3.38c-6.87-.06-11.78,3.12-14.69,9.34a1.14,1.14,0,0,1-1.22.8c-1.41,0-2.83,0-4.24,0-.6,0-.91.19-.88.84s0,1.26,0,1.89.21.83.8.81c.78,0,1.56,0,2.35,0,1.93,0,1.93,0,1.94,1.88a4.56,4.56,0,0,0,0,.64c.06.61-.24.79-.8.78-1.18,0-2.35,0-3.53,0-.52,0-.78.19-.76.74s0,1.27,0,1.9.24.92.9.91c1.35,0,2.71,0,4.07,0a1.27,1.27,0,0,1,1.42.91,15,15,0,0,0,4.57,6,15.33,15.33,0,0,0,19,0c.68-.54.64-.87,0-1.38s-.95-.92-1.42-1.39c-.94-.94-.94-.94-2-.21a10.91,10.91,0,0,1-15.18-2.91c-.16-.24-.48-.51-.36-.78s.54-.16.82-.16c2.08,0,4.16,0,6.24,0,2.83,0,2.39.45,2.46-2.51,0-.8-.27-1-1-1-2.59,0-5.19,0-7.78,0-2.29,0-2.2.49-2.2-2.24,0-.77.25-1.09,1.05-1.06,1.48,0,3,0,4.43,0,1.06,0,2.11,0,3.17,0,2.72-.05,2.31.45,2.38-2.41,0-.86-.26-1.16-1.13-1.15-2.56.05-5.13,0-7.69,0-.23,0-.55.1-.68-.1s.12-.5.26-.72A10.14,10.14,0,0,1,1725.84,604.49Z" transform="translate(1.8 -134.54)"/></g><path class="cls-12" d="M987.05,647.18V552.91a97.87,97.87,0,1,0-195.74.75c.4,54,45.13,97.12,99.1,97.12h93A3.6,3.6,0,0,0,987.05,647.18Zm-14.89-95.84a83,83,0,1,1-81.41-81.41A83,83,0,0,1,972.16,551.34Z" transform="translate(1.8 -134.54)"/><path class="cls-12" d="M882.9,536.17c0-4.57,0-9.14,0-13.71,0-2.69,1.41-4.65,3.64-5.26,3.14-.84,6,1.31,6.25,4.73,0,.44,0,.89,0,1.33,0,7.58,0,15.16,0,22.74a2.06,2.06,0,0,0,1.34,2.13c4.87,2.38,9.71,4.82,14.55,7.26,2.37,1.2,3.5,3.31,3,5.51a4.9,4.9,0,0,1-6.69,3.6c-1-.4-1.94-.93-2.9-1.41-5.25-2.63-10.48-5.29-15.76-7.86a5.62,5.62,0,0,1-3.46-5.57C882.92,545.16,882.9,540.67,882.9,536.17Z" transform="translate(1.8 -134.54)"/><circle class="cls-12" cx="889.82" cy="366.08" r="3.79"/><circle class="cls-12" cx="889.82" cy="466.42" r="3.79"/><circle class="cls-12" cx="839.66" cy="416.25" r="3.79"/><circle class="cls-12" cx="939.99" cy="416.25" r="3.79"/><circle class="cls-12" cx="864.74" cy="372.8" r="3.79"/><circle class="cls-12" cx="914.91" cy="459.7" r="3.79"/><circle class="cls-12" cx="846.38" cy="441.33" r="3.79"/><circle class="cls-12" cx="933.27" cy="391.17" r="3.79"/><circle class="cls-12" cx="846.38" cy="391.17" r="3.79"/><circle class="cls-12" cx="933.27" cy="441.33" r="3.79"/><circle class="cls-12" cx="864.74" cy="459.7" r="3.79"/><circle class="cls-12" cx="914.91" cy="372.8" r="3.79"/><g class="cls-14"><path class="cls-4" d="M990,655v94.27a97.87,97.87,0,1,0,195.74-.75c-.4-54-45.13-97.12-99.1-97.12h-93A3.6,3.6,0,0,0,990,655Zm14.88,95.84a83,83,0,1,1,81.42,81.41A83,83,0,0,1,1004.88,750.88Z" transform="translate(1.8 -134.54)"/><g class="cls-14"><path class="cls-15" d="M1130,777.48c-2.8-14.94-11.18-25.55-25-31.91-.8-.37-.9-.56-.22-1.17,6.35-5.7,9.45-12.79,8.62-21.33-.94-9.63-6-16.45-14.65-20.72a27.41,27.41,0,0,0-9-2.36h-3.37l-2.49.38a25.28,25.28,0,0,0-18.49,36.55,24.48,24.48,0,0,0,6,7.5c.56.48.73.77-.15,1.11a24.58,24.58,0,0,0-2.93,1.4c-12.51,6.91-20,17.36-22.23,31.53-.68,4.35-.4,8.73-.44,13.1,0,3.69,1.65,5.33,5.38,5.33h74.09c.41,0,.81,0,1.21,0a4.37,4.37,0,0,0,4.09-3.33,11.6,11.6,0,0,0,.17-3.11C1130.59,786.11,1130.84,781.76,1130,777.48Zm-60.11-52.25a18.21,18.21,0,1,1,18.14,18.1A18.07,18.07,0,0,1,1069.93,725.23Zm54,63.66c0,.61-.26.89-.87.86h-69.15c-1.64,0-1.61,0-1.64-1.66-.13-6.64.83-13.05,4-19,6-11,15.17-17.51,27.63-19A35.53,35.53,0,0,1,1123.12,778,45.17,45.17,0,0,1,1124,788.89Z" transform="translate(1.8 -134.54)"/><path class="cls-15" d="M1130.39,744.21c-.87-.52-.85-.81-.27-1.59,5.44-7.28,6.28-15.1,2-23.13-3.78-7.06-10-10.58-18-11.11-.51,0-1.17-.2-1.47.28s.29,1,.59,1.44a25.66,25.66,0,0,1,3.58,6.51,2.36,2.36,0,0,0,1.52,1.54,16.65,16.65,0,0,1,6.89,4.91,9.49,9.49,0,0,1,2.58,6.2c0,5.39-2.51,9.23-7.32,11.6-2,1-3.1,2.57-2.94,4.28a4.48,4.48,0,0,0,3.76,4c11,2.6,19.9,12.51,19.29,26.36,0,.82-.37,1-1.1,1-1.29,0-2.57,0-3.86,0-.84,0-1.15.29-1,1.17a22.56,22.56,0,0,1,.62,5.36c0,1,.42,1.32,1.37,1.3,1.81,0,3.62-.06,5.42,0,2.59.08,4.42-.93,5.33-3.43V770.81a4.51,4.51,0,0,1-.15-.58C1146,758.73,1140.3,750.09,1130.39,744.21Z" transform="translate(1.8 -134.54)"/><path class="cls-15" d="M1046.12,753.68a24.37,24.37,0,0,1,9.49-4.52,4.49,4.49,0,0,0,3.66-3.67c.2-2.09-.69-3.57-2.77-4.6-.4-.2-.8-.38-1.18-.6-5.67-3.21-7.87-10.31-4.86-15.77a14.6,14.6,0,0,1,7.33-6.35c.5-.22,1.12-.29,1.34-.92a30.69,30.69,0,0,1,4.2-7.68c.61-.86.41-1.19-.7-1.18a18,18,0,0,0-3.11.26c-7.87,1.43-13.58,5.73-16.53,13.18s-1.76,14.42,3.07,20.76c.64.85.59,1.14-.31,1.65a32.86,32.86,0,0,0-11.94,11.48,33.49,33.49,0,0,0-5,19.41c0,1.86,0,3.14,0,4.43a4.4,4.4,0,0,0,4.5,4.75c2.16.09,4.33,0,6.5,0,.81,0,1.19-.31,1.16-1.14a24,24,0,0,1,.62-5.6c.17-.87-.18-1.08-.93-1.07-1.09,0-2.17,0-3.26,0-.72,0-1-.28-1-1,.07-1.68,0-3.36.2-5A24.51,24.51,0,0,1,1046.12,753.68Z" transform="translate(1.8 -134.54)"/></g></g></g></g></svg>