<svg xmlns="http://www.w3.org/2000/svg" viewBox="0 0 89.68 65.02"><defs><style>.cls-1{fill:#fff;}</style></defs><g id="Layer_2" data-name="Layer 2"><g id="Layer_1-2" data-name="Layer 1"><path class="cls-1" d="M10.07,49.32a4.33,4.33,0,0,1-4-4.63c0-1-.19-1.49-1.38-1.52A4.68,4.68,0,0,1,0,38.28V27.13a4.69,4.69,0,0,1,4.71-4.85c1.12,0,1.34-.43,1.33-1.44,0-3.47,1.7-5.17,5.14-5.17,5.45,0,10.9,0,16.36,0a5,5,0,0,1,4.12,1.55.89.89,0,0,0,.94.31c10.65-2.57,20.33-7,28.21-14.82.37-.38.69-.81,1-1.21C63,.18,64.23-.28,65.49.16a3.28,3.28,0,0,1,2,3.41v58a3.05,3.05,0,0,1-5.6,2,32,32,0,0,0-5.55-5.23A62,62,0,0,0,32.7,47.55a1,1,0,0,0-1.05.3,4.4,4.4,0,0,1-3.17,1.51M63.05,7a4.46,4.46,0,0,0-.46.32c-8,7.25-17.41,11.63-27.75,14.27-1.72.44-2.16.92-2.16,2.71q0,8.12,0,16.24c0,2,.4,2.42,2.32,2.91C44.73,46,53.67,50,61.37,56.61l1.68,1.45ZM28.26,32.57c0-3.72,0-7.44,0-11.15,0-.93-.29-1.23-1.21-1.23q-7.65.06-15.3,0c-.92,0-1.23.28-1.22,1.22q0,11.1,0,22.2c0,.94.29,1.21,1.22,1.21q7.64-.06,15.29,0c.92,0,1.23-.26,1.22-1.21C28.23,39.93,28.26,36.25,28.26,32.57ZM6,32.63C6,31,6,29.37,6,27.74c0-.55-.12-1-.8-1s-.81.42-.81,1q0,5,0,9.88c0,.62.15,1,.87,1s.74-.52.74-1Z"/><path class="cls-1" d="M89.67,32.55a29.91,29.91,0,0,1-5,17.32A2.33,2.33,0,0,1,82.18,51a2.24,2.24,0,0,1-1.34-3.51,25,25,0,0,0,4.34-14.09,24.55,24.55,0,0,0-3.7-13.53L81,19.2c-.8-1.33-.61-2.64.5-3.37a2.27,2.27,0,0,1,3.27.88,28.48,28.48,0,0,1,4.42,11.06A25,25,0,0,1,89.67,32.55Z"/><path class="cls-1" d="M80.91,33.31A19.36,19.36,0,0,1,78,43.46c-1,1.61-2.29,2.06-3.5,1.28s-1.32-2.05-.37-3.63A14.89,14.89,0,0,0,75.75,29,15.37,15.37,0,0,0,74,25.21a2.38,2.38,0,0,1,.58-3.45c1.15-.66,2.41-.24,3.25,1.06A19.5,19.5,0,0,1,80.91,33.31Z"/></g></g></svg>